<?xml version="1.0" encoding="UTF-8"?>
<!DOCTYPE svg PUBLIC "-//W3C//DTD SVG 1.1//EN" "http://www.w3.org/Graphics/SVG/1.1/DTD/svg11.dtd">
<svg xmlns="http://www.w3.org/2000/svg" version="1.1" width="457px" height="246px" style="shape-rendering:geometricPrecision; text-rendering:geometricPrecision; image-rendering:optimizeQuality; fill-rule:evenodd; clip-rule:evenodd" xmlns:xlink="http://www.w3.org/1999/xlink">
<g><path style="opacity:0.999" fill="#6e6a60" d="M 365.5,5.5 C 380.535,3.0124 393.369,7.0124 404,17.5C 409.85,25.6811 416.683,32.8478 424.5,39C 431.5,42 438.5,45 445.5,48C 454.649,54.3968 454.649,61.0634 445.5,68C 442.785,69.9078 439.785,71.2411 436.5,72C 422.821,72.1673 409.154,72.6673 395.5,73.5C 391.093,80.0386 385.427,85.2053 378.5,89C 374.828,93.5129 372.662,98.6796 372,104.5C 371.667,123.833 371.333,143.167 371,162.5C 366.803,170.113 362.803,177.78 359,185.5C 350.251,191.125 341.417,196.625 332.5,202C 327.912,205.759 325.246,210.592 324.5,216.5C 324.833,219.01 325.833,221.177 327.5,223C 332.349,225.59 337.349,227.924 342.5,230C 346.114,232.944 347.447,236.777 346.5,241.5C 325.134,241.904 303.801,241.404 282.5,240C 279.038,239.317 277.705,237.151 278.5,233.5C 279.291,228.46 280.291,223.46 281.5,218.5C 281.449,216.9 281.116,215.4 280.5,214C 265.125,213.109 249.792,211.776 234.5,210C 212.066,205.808 189.733,201.142 167.5,196C 141.856,190.432 116.522,191.432 91.5,199C 87.4803,202.865 86.9803,207.032 90,211.5C 93,214.5 96,217.5 99,220.5C 102.412,228.434 99.7455,231.768 91,230.5C 85.2717,230.969 80.6051,228.969 77,224.5C 74.0224,215.921 71.3557,207.255 69,198.5C 66.109,200.538 64.2757,203.205 63.5,206.5C 64.0934,213.863 64.7601,221.197 65.5,228.5C 55.8035,232.065 49.3035,229.065 46,219.5C 45.4882,206.816 45.1548,194.15 45,181.5C 57.6623,167.188 66.9956,150.855 73,132.5C 73.6667,130.5 73.6667,128.5 73,126.5C 54.2071,125.911 35.3738,125.078 16.5,124C 10.771,122.288 6.10429,118.955 2.5,114C 13.0587,111.847 23.7254,110.513 34.5,110C 93.5,109.667 152.5,109.333 211.5,109C 237.043,108.225 261.71,103.225 285.5,94C 291.822,91.1739 297.822,87.8405 303.5,84C 306.614,80.9402 309.114,77.4402 311,73.5C 317.965,57.5682 325.965,42.2349 335,27.5C 343.196,17.3292 353.363,9.99584 365.5,5.5 Z"/></g>
</svg>
