<?xml version="1.0" standalone="no"?>
<!DOCTYPE svg PUBLIC "-//W3C//DTD SVG 20010904//EN"
 "http://www.w3.org/TR/2001/REC-SVG-20010904/DTD/svg10.dtd">
<svg version="1.0" xmlns="http://www.w3.org/2000/svg"
 width="450.000000pt" height="450.000000pt" viewBox="0 0 450.000000 450.000000"
 preserveAspectRatio="xMidYMid meet">
<metadata>
Created by potrace 1.10, written by Peter Selinger 2001-2011
</metadata>
<g transform="translate(0.000000,450.000000) scale(0.050000,-0.050000)"
fill="#000000" stroke="none">
<path d="M4136 8629 c-5 -5 -36 -12 -68 -15 -71 -8 -168 -54 -168 -79 0 -11
-15 -14 -32 -7 -23 9 -29 4 -21 -18 9 -22 -2 -30 -39 -30 -41 0 -48 -7 -38
-39 9 -29 -2 -46 -42 -67 -30 -16 -45 -34 -33 -41 83 -51 -2 -90 -192 -88
-219 1 -262 -5 -299 -40 -15 -14 -39 -25 -53 -25 -48 0 -207 -80 -218 -110 -7
-16 -32 -30 -57 -30 -27 0 -37 7 -24 15 12 8 38 46 57 83 72 140 286 240 525
244 64 2 98 7 76 13 -22 5 -45 17 -50 26 -15 23 -239 37 -253 15 -6 -10 -24
-14 -41 -7 -16 6 -43 -3 -60 -21 -26 -25 -35 -26 -50 -4 -13 19 -16 15 -12
-13 4 -26 -7 -42 -34 -47 -36 -8 -128 -84 -100 -84 7 0 -9 -20 -35 -45 -46
-43 -84 -110 -79 -138 1 -7 -8 -12 -22 -11 -129 4 -254 -9 -244 -26 18 -30
-15 -24 -64 10 -28 19 -48 23 -56 10 -7 -11 -1 -20 13 -20 14 0 -18 -27 -70
-60 -52 -33 -90 -68 -85 -78 6 -9 -6 -32 -26 -50 -34 -31 -78 -226 -64 -282 3
-11 -1 -14 -9 -6 -20 20 -93 -22 -79 -45 7 -10 -1 -13 -17 -7 -18 7 -39 -6
-52 -30 -12 -23 -40 -42 -61 -42 -46 0 -80 -52 -80 -121 0 -12 -9 -16 -20 -9
-12 7 -20 6 -18 -4 1 -9 1 -20 -1 -26 -20 -60 -11 -368 12 -412 22 -43 23 -58
4 -70 -17 -10 -18 -23 -4 -41 11 -15 21 -58 22 -97 2 -79 94 -257 143 -276 17
-6 44 -24 59 -38 14 -15 33 -22 42 -16 9 5 27 -16 40 -47 18 -44 36 -57 77
-55 44 1 53 -6 49 -43 -3 -29 6 -45 25 -45 17 0 30 9 30 20 0 11 13 20 29 20
78 0 50 -107 -40 -149 -95 -45 -103 -71 -41 -124 44 -38 50 -54 33 -85 -12
-22 -21 -67 -21 -101 0 -35 -12 -67 -28 -73 -42 -16 -49 -47 -33 -152 9 -56 6
-109 -7 -133 -21 -39 -28 -43 -72 -43 -11 0 -20 -10 -20 -21 0 -12 9 -16 20
-9 31 19 24 -29 -9 -61 -34 -35 -59 -38 -39 -6 9 14 5 18 -8 9 -33 -20 -123 8
-112 36 5 13 -7 41 -27 63 -19 21 -38 56 -42 77 -8 47 -53 95 -72 76 -8 -8
-11 0 -8 16 4 17 16 37 27 45 11 8 5 15 -15 15 -19 0 -36 16 -36 35 -2 32 -7
69 -29 195 -4 22 -7 47 -8 55 -1 8 -10 15 -20 15 -19 0 -41 -135 -24 -151 5
-6 12 -26 15 -45 19 -143 56 -264 80 -264 15 0 27 -9 27 -19 0 -11 28 -51 62
-90 64 -73 62 -121 -4 -100 -22 7 -38 2 -38 -11 0 -12 8 -17 18 -11 10 6 28
-17 40 -51 19 -55 17 -63 -18 -72 -22 -6 -40 -18 -40 -28 0 -9 -19 -10 -42 -1
-33 12 -59 1 -113 -51 -39 -36 -78 -66 -87 -66 -9 0 -12 -12 -6 -27 5 -15 -4
-38 -22 -53 -26 -22 -29 -21 -18 7 7 20 2 33 -12 33 -16 0 -20 -17 -11 -52 8
-34 1 -70 -20 -103 -23 -34 -25 -45 -6 -34 22 14 22 11 2 -14 -46 -57 -9 -654
39 -625 11 7 15 -13 9 -50 -5 -34 -1 -62 9 -62 11 0 16 -36 13 -80 -4 -72 -8
-77 -31 -45 -24 31 -25 29 -13 -20 8 -34 5 -55 -8 -55 -11 0 -60 -34 -109 -75
-49 -41 -105 -87 -126 -101 -21 -14 -25 -19 -10 -12 19 10 23 6 13 -10 -8 -14
-30 -19 -48 -12 -26 10 -28 7 -9 -12 16 -16 18 -36 5 -59 -21 -41 -29 -532 -8
-584 7 -20 1 -50 -14 -69 -19 -23 -19 -29 -2 -19 29 18 30 11 35 -297 3 -135
-5 -231 -18 -249 -16 -21 -16 -25 2 -15 17 11 21 -10 15 -76 -5 -61 0 -90 17
-90 17 -1 16 -6 -3 -18 -19 -12 -21 -21 -5 -31 12 -7 22 -22 22 -33 0 -11 -9
-15 -20 -8 -11 7 -20 -1 -20 -17 0 -16 11 -34 25 -40 19 -7 18 -15 -5 -31 -27
-19 -27 -21 0 -22 27 -1 27 -3 0 -20 -16 -11 -20 -20 -7 -20 33 0 53 -124 22
-143 -15 -10 -16 -17 -3 -17 13 0 22 -54 24 -140 1 -77 -6 -140 -16 -140 -10
0 -24 -31 -31 -70 -8 -38 -19 -70 -27 -70 -7 0 -31 -34 -52 -75 -22 -41 -44
-79 -50 -85 -24 -24 -60 -102 -60 -131 0 -17 -9 -26 -20 -19 -11 7 -14 -1 -8
-19 7 -17 2 -31 -11 -31 -13 0 -18 -8 -12 -19 6 -10 2 -24 -9 -31 -11 -7 -16
-21 -10 -30 6 -9 2 -23 -10 -30 -11 -7 -20 -30 -20 -52 0 -22 -15 -73 -33
-114 -18 -41 -36 -92 -40 -114 -4 -22 -13 -53 -20 -70 -14 -33 -24 -68 -36
-130 -5 -22 -14 -66 -20 -98 -31 -144 -22 -172 56 -172 75 0 55 -44 184 400
86 300 249 671 375 857 58 86 59 90 48 290 -101 1818 -100 1877 12 1961 l56
41 2774 1 c3332 2 3172 6 3262 -84 l68 -68 -13 -234 c-17 -311 -49 -991 -71
-1533 l-18 -438 116 -232 c109 -217 207 -482 303 -816 l41 -145 80 0 c67 0 78
5 67 34 -7 19 -18 74 -25 122 -8 61 -17 79 -30 60 -13 -17 -14 -11 -6 19 7 25
3 75 -8 110 -12 36 -24 90 -26 120 -3 30 -12 55 -22 55 -9 0 -11 8 -5 19 6 10
2 24 -10 32 -12 7 -17 25 -11 40 5 14 0 30 -11 33 -11 4 -22 31 -24 60 -2 29
-11 47 -21 41 -11 -6 -13 3 -6 22 7 18 5 33 -3 33 -9 0 -28 36 -43 80 -15 44
-34 80 -43 80 -9 0 -17 19 -17 41 0 27 -8 36 -23 27 -16 -10 -20 -4 -11 19 7
18 3 33 -9 33 -12 0 -18 22 -12 50 7 38 3 45 -15 30 -35 -29 -52 -1 -27 45 16
30 14 53 -6 91 -19 35 -20 53 -5 58 14 5 19 49 14 118 -6 87 -2 109 18 98 14
-7 12 -1 -6 14 -20 17 -27 43 -19 76 7 28 11 83 10 124 -2 41 4 70 13 65 20
-12 9 117 -13 152 -9 15 -7 20 5 13 12 -8 20 28 22 92 1 57 5 145 9 194 4 50
-2 103 -14 118 -14 19 -14 31 -1 35 11 4 19 71 17 152 -1 80 3 154 10 165 31
53 23 620 -10 644 -25 19 -27 31 -11 51 26 32 10 61 -52 93 -25 13 -40 32 -34
41 5 10 -25 34 -68 54 -44 20 -84 54 -89 75 -6 21 -22 33 -38 27 -16 -7 -26 4
-26 27 0 21 7 38 15 38 9 0 16 14 16 31 0 17 -9 26 -20 19 -11 -7 -20 -4 -20
7 0 10 14 24 30 30 19 8 30 39 31 87 0 42 13 110 28 151 61 171 7 752 -66 707
-9 -6 -29 12 -44 39 -33 63 -152 155 -185 143 -13 -5 -40 0 -59 9 -24 13 -35
11 -36 -7 0 -16 -11 -12 -28 11 -26 34 -30 31 -48 -37 -21 -74 -88 -150 -134
-150 -31 0 -49 78 -46 193 1 46 -4 92 -10 103 -17 27 40 71 70 52 17 -10 20
-4 10 21 -8 20 -3 49 10 65 14 16 15 26 3 22 -43 -13 -150 105 -141 155 5 26
4 50 -3 53 -21 10 -82 131 -82 164 0 26 21 31 119 26 73 -4 117 2 115 14 -2
12 19 24 46 27 155 18 182 28 200 76 11 27 33 49 50 49 16 0 30 14 30 32 0 17
13 56 29 85 15 29 34 78 40 109 7 31 20 51 31 44 10 -6 14 9 9 34 -4 24 -13
81 -20 125 -6 45 -18 108 -27 141 -9 33 -14 76 -11 95 3 19 -16 52 -42 72 -26
21 -44 43 -38 51 5 7 -1 4 -14 -7 -16 -13 -13 -27 10 -51 18 -18 33 -49 33
-70 0 -20 10 -40 22 -44 16 -5 16 -29 2 -82 -12 -41 -13 -74 -3 -74 10 0 9
-22 -2 -51 -10 -29 -14 -74 -7 -100 17 -68 -6 -144 -47 -158 -19 -6 -50 -38
-69 -71 -19 -33 -47 -60 -62 -60 -15 0 -56 -14 -89 -31 -64 -31 -224 -44 -262
-21 -12 7 -27 68 -35 135 -9 78 -26 133 -48 152 -35 29 -32 115 2 94 10 -6 18
10 18 35 0 28 29 74 70 113 38 37 70 79 70 94 0 16 23 43 51 61 47 31 134 186
126 222 -6 24 40 172 63 206 15 22 17 14 8 -30 -28 -131 15 -293 65 -243 8 7
4 24 -9 37 -17 17 -8 39 37 90 79 90 77 187 -2 115 -33 -29 -36 -27 -48 28 -9
42 -23 57 -42 50 -26 -10 -39 23 -32 77 6 43 -102 234 -150 266 -31 20 -80 63
-108 96 -44 52 -57 57 -94 37 -36 -20 -47 -16 -73 20 -35 51 -202 58 -321 14
-95 -34 -127 -14 -125 77 2 111 -22 186 -59 186 -39 0 -85 56 -86 105 -2 68
-41 34 -41 -35 0 -71 -32 -95 -53 -40 -6 16 -51 49 -99 73 -48 24 -88 51 -88
61 0 9 -14 16 -32 16 -17 0 -55 18 -83 40 -59 47 -85 51 -85 12 0 -15 -20 -33
-45 -39 -66 -18 -75 -16 -63 16 9 24 0 26 -48 12 -65 -18 -153 43 -94 66 16 6
23 27 16 51 -18 72 126 188 216 174 107 -17 278 -76 278 -95 0 -10 23 -37 50
-61 28 -24 50 -55 50 -70 0 -97 109 -160 112 -66 2 50 -5 60 -45 60 -34 0 -47
11 -47 40 0 22 -13 40 -29 40 -16 0 -41 25 -55 55 -15 30 -35 56 -46 57 -11 1
-64 22 -117 47 -54 25 -131 47 -170 50 -40 3 -87 11 -105 19 -17 7 -54 5 -82
-6 -29 -11 -58 -14 -65 -6 -7 7 -7 -3 0 -22 22 -57 -9 -179 -42 -166 -16 6
-29 2 -29 -9 0 -10 9 -19 20 -19 11 0 20 -9 20 -20 0 -30 -65 -24 -153 13 -70
30 -101 37 -186 44 -23 2 -24 8 -5 27 13 13 24 33 24 45 0 12 -8 9 -18 -6 -13
-22 -26 -22 -61 -4 -56 30 -97 15 -119 -44 -17 -45 -17 -45 -79 22 -70 74 -68
78 64 167 74 50 75 53 31 67 -35 11 -56 2 -93 -41 -61 -71 -199 -92 -276 -41
-41 27 -78 31 -188 21 -95 -9 -141 -6 -151 11 -11 17 -19 16 -32 -4 -9 -15
-24 -28 -32 -29 -59 -6 -126 -36 -126 -57 0 -13 -22 -36 -49 -51 -27 -14 -45
-33 -40 -42 15 -24 -60 -58 -129 -58 -33 0 -65 -9 -72 -20 -7 -11 1 -20 18
-20 17 0 49 -20 71 -44 23 -24 41 -33 41 -20 0 13 13 24 28 24 15 0 33 13 39
29 16 43 146 119 273 160 61 20 128 43 151 51 63 24 366 -79 382 -130 7 -22
22 -47 35 -55 14 -9 10 -14 -11 -15 -18 0 -38 -13 -44 -30 -7 -16 -26 -30 -44
-30 -17 0 -26 -9 -19 -20 7 -11 -11 -29 -39 -40 -61 -23 -65 -51 -11 -80 22
-12 40 -14 40 -5 0 51 222 149 338 149 198 0 477 -131 433 -203 -8 -13 9 -21
47 -21 60 0 109 41 66 55 -43 15 -25 60 26 70 38 7 49 2 45 -22 -3 -21 15 -35
55 -43 40 -7 51 -16 35 -27 -62 -39 -22 -65 100 -68 211 -3 575 -244 575 -380
0 -23 9 -66 20 -95 16 -41 14 -50 -9 -46 -16 3 -27 -3 -25 -14 2 -11 12 -17
22 -14 24 8 51 -36 52 -82 0 -20 13 -50 30 -67 19 -19 24 -42 14 -63 -9 -19
-16 -58 -14 -88 1 -29 -5 -49 -14 -43 -9 5 -16 1 -16 -10 0 -11 10 -23 22 -27
12 -4 -3 -20 -33 -37 -43 -22 -57 -23 -64 -4 -5 16 -20 19 -42 7 -18 -9 -51
-10 -73 -2 -25 9 -52 5 -71 -12 -25 -22 -39 -22 -81 -1 -27 15 -70 25 -95 23
-24 -2 -49 4 -55 14 -6 9 -20 11 -32 3 -20 -12 -146 -14 -280 -6 -72 5 -66
154 10 237 26 28 53 66 59 83 6 17 39 32 76 35 88 7 204 -33 192 -66 -12 -29
24 -70 61 -70 14 0 26 9 26 20 0 11 -14 20 -32 20 -35 0 -28 49 9 53 13 1 32
3 43 5 33 4 23 42 -15 56 -19 6 -50 25 -68 40 -19 17 -84 30 -158 32 l-124 4
-31 97 c-31 97 -11 152 43 119 35 -22 148 -27 196 -8 46 18 46 19 -20 43 -44
16 -58 29 -42 39 13 9 18 26 10 39 -11 17 -23 16 -47 -3 -24 -19 -28 -20 -17
-1 10 16 3 25 -22 25 -48 0 -85 -37 -71 -72 6 -16 0 -28 -12 -28 -12 0 -22 9
-22 21 0 11 -11 18 -26 15 -14 -3 -38 5 -55 18 -102 86 -137 121 -126 132 6 7
-2 26 -19 43 -28 28 -34 25 -55 -35 l-25 -67 -102 16 c-163 27 -292 -2 -292
-65 0 -24 -14 -38 -39 -38 -28 0 -37 -11 -31 -40 9 -47 -15 -52 -50 -10 -17
21 -18 30 -2 30 12 0 22 16 22 35 -1 30 -3 31 -20 5 -17 -27 -19 -27 -20 0 -1
26 -3 26 -19 0 -16 -24 -22 -20 -36 18 -13 33 -36 50 -77 54 -48 5 -53 2 -27
-18 17 -13 32 -46 34 -74 2 -27 26 -70 54 -94 57 -49 66 -96 21 -113 -16 -7
-24 -25 -18 -42 7 -17 20 -26 30 -20 10 6 18 -3 18 -20 0 -17 -11 -31 -24 -31
-19 0 -19 -5 0 -24 13 -13 24 -45 24 -71 0 -27 9 -42 20 -35 11 7 20 3 20 -9
0 -11 -9 -21 -19 -21 -32 0 -17 -148 17 -176 18 -15 21 -21 7 -14 -14 7 -25 4
-25 -6 0 -43 -163 -94 -183 -58 -26 47 -64 43 -51 -6 7 -27 0 -40 -19 -40 -16
0 -24 8 -18 19 21 33 -37 51 -165 51 -136 0 -185 32 -132 85 16 15 23 36 18
46 -19 30 42 147 109 206 39 34 60 68 53 86 -6 16 -3 24 7 18 28 -17 49 29 24
54 -26 26 -191 -76 -172 -106 7 -11 -16 -30 -49 -41 -34 -12 -62 -28 -62 -36
0 -8 -16 -32 -35 -53 -46 -51 -85 -139 -86 -195 -1 -68 -49 -120 -98 -104 -62
19 -86 79 -63 160 10 39 13 70 5 70 -7 0 1 10 17 22 24 17 21 20 -15 12 -97
-22 -18 224 117 362 90 93 294 204 373 204 25 0 45 8 45 17 0 10 25 18 55 17
135 -1 147 3 122 43 -17 28 -42 35 -105 30 -135 -10 -245 57 -153 95 21 8 17
14 -15 23 -44 11 -53 -6 -45 -87 2 -24 -10 -30 -46 -24 -33 7 -57 -3 -77 -32
-45 -63 -196 -113 -196 -63 0 20 17 41 39 46 37 10 37 13 5 80 -21 43 -40 61
-49 47 -10 -15 -14 -15 -15 2 0 14 -13 20 -30 13 -43 -16 -37 -60 15 -98 25
-18 36 -37 25 -41 -22 -9 -24 -129 -2 -165 19 -30 -13 -30 -44 1 -13 13 -25
15 -26 5 -2 -10 -4 -32 -5 -49 -2 -16 -21 -31 -43 -32 -22 -1 -50 -3 -61 -5
-12 -2 -23 -37 -24 -78 -3 -107 -17 -156 -43 -150 -12 3 -22 -8 -22 -25 0 -16
9 -30 20 -30 29 0 25 -95 -5 -107 -20 -8 -20 -10 0 -11 14 -1 25 -16 25 -33 0
-17 -9 -26 -20 -19 -12 7 -20 -16 -20 -58 0 -38 -12 -77 -27 -86 -14 -9 -32
-32 -39 -51 -25 -69 -204 -4 -259 95 -9 15 -29 23 -46 17 -16 -6 -29 -1 -29
11 0 12 11 20 24 17 13 -3 27 11 31 30 5 22 -4 35 -24 35 -17 0 -31 7 -32 15
-17 264 -15 360 10 405 16 28 41 78 57 111 48 103 260 249 360 249 63 0 75
110 13 115 -21 1 -36 -7 -34 -19 9 -41 -42 -37 -55 4 -8 24 -19 38 -25 32 -6
-7 -26 -1 -43 13 -18 13 -26 16 -18 7 14 -17 -32 -75 -56 -71 -7 1 -19 -7 -27
-19 -7 -12 -45 -24 -85 -27 -76 -5 -84 -34 -10 -36 34 -1 27 -9 -31 -35 -41
-18 -75 -45 -75 -59 0 -14 -9 -25 -20 -25 -11 0 -20 -14 -20 -30 0 -17 7 -28
15 -25 8 3 15 -4 15 -15 0 -11 -16 -19 -35 -18 -19 2 -35 -9 -35 -23 0 -14
-11 -30 -25 -36 -19 -8 -19 -10 1 -11 15 -1 22 -9 16 -18 -5 -10 -3 -99 5
-199 8 -100 8 -178 1 -174 -8 5 -25 -5 -38 -21 -20 -24 -20 -30 0 -30 13 0 19
-13 13 -29 -6 -17 6 -42 29 -58 56 -39 32 -123 -44 -157 -32 -14 -58 -32 -58
-39 0 -19 -67 -10 -92 13 -13 11 -19 33 -14 50 9 27 7 27 -11 0 -13 -18 -45
-27 -82 -23 -46 4 -61 -2 -61 -28 0 -24 -12 -31 -42 -23 -32 9 -38 4 -28 -22
8 -19 18 -56 23 -84 5 -27 18 -53 28 -56 10 -4 1 -25 -19 -46 -43 -47 -202
-35 -202 16 0 15 -9 23 -20 16 -11 -7 -20 -3 -20 9 0 11 9 21 20 21 11 0 19
20 19 45 -2 43 -3 43 -19 5 -14 -32 -17 -25 -19 34 -1 59 5 72 29 63 22 -8 27
-2 18 21 -7 19 -2 32 12 32 14 0 19 13 12 31 -6 17 -4 46 6 65 90 182 102 196
204 249 59 30 123 55 144 55 26 0 35 10 26 31 -6 18 -3 26 8 19 26 -16 25 3
-2 53 -21 40 -22 40 -73 -6 -28 -26 -45 -36 -37 -22 18 31 -40 34 -59 4 -7
-12 -26 -17 -43 -10 -19 7 -34 -3 -40 -29 -6 -24 -28 -40 -53 -41 -50 0 -113
-43 -113 -76 0 -13 -9 -23 -19 -23 -11 0 -15 -13 -8 -30 7 -20 -1 -30 -26 -30
-30 0 -37 -14 -34 -71 2 -46 -5 -68 -20 -63 -36 12 -30 164 7 164 47 0 35 59
-14 66 -32 5 -52 -10 -75 -55 -18 -33 -27 -61 -21 -61 6 0 -4 -28 -21 -63 -53
-101 36 -477 112 -477 8 0 29 -31 48 -70 18 -38 43 -70 54 -70 28 0 5 -123
-25 -141 -35 -22 -144 26 -195 86 -25 30 -55 50 -65 44 -10 -6 -18 -1 -18 11
0 12 -9 17 -20 10 -11 -7 -20 -3 -20 8 0 11 9 25 20 32 12 8 11 22 -5 38 -20
22 -29 21 -48 -6 -22 -29 -25 -29 -38 3 -7 19 -20 30 -29 25 -32 -20 -66 55
-70 150 -2 54 -13 110 -25 124 -43 51 -62 127 -42 163 11 19 20 61 21 94 1 32
14 69 29 82 15 12 27 34 27 49 0 14 36 65 80 112 44 47 80 92 80 99 0 7 23 18
50 25 28 7 50 22 50 32 0 11 12 20 28 20 15 0 38 14 52 30 25 30 10 39 -52 32
-37 -4 -22 200 20 262 59 89 199 170 322 185 60 8 110 21 110 29 0 14 69 16
126 5 9 -2 11 -21 4 -43 -10 -30 -5 -37 18 -28 17 6 29 21 26 32 -5 25 181
128 304 168 50 17 112 40 136 52 27 13 109 18 210 12 191 -12 216 -7 216 45 0
186 492 390 651 270 52 -40 124 -38 165 3 32 32 32 33 -1 21 -19 -8 -35 -5
-35 6 0 10 -17 19 -38 19 -21 0 -42 10 -46 23 -8 23 -300 46 -320 26z m1226
-1085 c108 -110 141 -357 58 -424 -7 -5 -19 -26 -26 -45 -7 -19 -27 -35 -43
-35 -17 0 -32 -11 -32 -25 -4 -69 -267 -212 -392 -214 -56 -1 -72 44 -33 98
16 24 24 49 17 57 -7 7 -22 0 -34 -17 -16 -23 -18 -20 -11 15 5 24 -3 62 -19
85 -16 22 -24 50 -17 62 7 11 6 19 -4 17 -39 -7 -54 4 -28 20 15 10 29 44 31
75 2 38 14 57 36 57 18 0 40 8 49 17 9 9 7 13 -4 10 -11 -4 -23 2 -27 13 -3
11 -16 31 -28 45 -11 14 -15 32 -8 39 7 6 -1 22 -17 34 -58 43 -15 104 76 109
45 3 93 14 105 24 13 10 29 12 37 4 8 -8 24 2 36 23 33 58 204 31 278 -44z
m1146 -114 c44 -38 81 -50 152 -50 214 0 359 -105 365 -264 5 -146 -21 -318
-54 -354 -17 -20 -31 -50 -31 -69 0 -18 -9 -33 -20 -33 -11 0 -20 -14 -20 -31
0 -16 -13 -35 -30 -42 -36 -14 -40 -60 -5 -74 15 -6 11 -10 -10 -11 -19 -1
-52 -19 -74 -41 -38 -38 -140 -21 -141 24 0 8 -12 15 -28 15 -15 0 -33 16 -40
35 -48 130 -102 190 -157 173 -25 -8 -35 0 -35 29 0 22 -11 44 -25 50 -19 7
-18 15 5 31 38 27 66 28 50 2 -7 -11 -4 -20 7 -20 11 0 15 34 9 79 -10 75 -9
78 37 67 39 -9 43 -7 22 15 -14 15 -25 43 -25 63 0 20 -9 36 -20 36 -11 0 -20
27 -20 60 0 35 -10 58 -24 55 -53 -11 -42 156 12 181 56 25 52 88 -5 83 -105
-11 -86 10 37 39 6 1 36 -21 68 -48z m-4500 -41 c6 -17 21 -26 32 -19 11 7 20
3 20 -9 0 -11 -7 -21 -15 -21 -9 0 -46 -46 -82 -102 -76 -116 -90 -116 -71 -1
10 62 22 83 49 83 43 0 68 32 39 50 -11 7 -20 21 -20 31 0 31 35 22 48 -12z
m392 -448 c0 -10 -9 -24 -20 -31 -12 -7 -15 -21 -9 -31 6 -11 2 -19 -10 -19
-11 0 -21 23 -21 50 0 31 11 50 30 50 17 0 30 -8 30 -19z m856 -186 c53 -50
296 -60 402 -16 42 17 73 15 143 -10 97 -36 386 -56 719 -50 116 2 224 4 240
4 52 1 290 -69 297 -86 16 -41 181 -17 235 33 64 59 55 79 -21 51 -29 -12 -78
-20 -107 -19 -42 2 -45 5 -14 12 22 6 69 32 104 58 77 58 77 58 197 5 90 -39
121 -42 433 -33 l336 10 75 -85 c152 -172 173 -200 168 -224 -3 -14 6 -23 20
-20 61 13 177 -337 217 -655 13 -99 35 -220 50 -270 68 -219 80 -354 80 -886
0 -417 6 -539 26 -551 21 -13 20 -22 -5 -42 -17 -14 -31 -41 -31 -58 -1 -50
-86 -209 -118 -219 -18 -6 -22 -1 -12 16 10 17 8 21 -5 13 -27 -17 -231 -37
-325 -33 -38 2 -113 4 -165 5 -53 1 -95 12 -96 24 0 11 -9 5 -21 -14 -20 -34
-76 -42 -258 -34 -205 8 -282 8 -366 -3 -53 -6 -100 -5 -105 3 -4 8 -46 11
-93 7 -52 -5 -90 2 -100 17 -12 20 -15 20 -16 0 0 -14 -25 -25 -56 -25 -65 0
-131 65 -99 97 15 15 -16 19 -107 15 -70 -4 -137 -2 -147 4 -32 19 -277 19
-329 0 -30 -11 -56 -10 -69 3 -29 29 -88 26 -107 -4 -18 -28 -118 -92 -171
-109 -19 -6 -35 -20 -35 -31 0 -13 -9 -13 -25 0 -39 30 -135 49 -135 25 0 -11
-18 -20 -40 -20 -22 0 -40 10 -40 21 0 12 10 15 23 7 15 -9 18 -5 7 12 -13 20
-22 18 -42 -9 -22 -31 -44 -34 -157 -22 -72 8 -188 12 -256 10 -296 -9 -418
10 -427 69 -3 20 -11 42 -19 49 -8 7 -10 -12 -5 -42 11 -56 -10 -69 -60 -38
-18 12 -20 30 -7 65 9 26 11 66 3 88 -12 32 -19 22 -33 -50 -16 -76 -26 -90
-68 -92 -27 -1 -53 -4 -59 -6 -61 -24 -180 -18 -180 9 0 29 -3 29 -31 0 -35
-35 -69 -41 -69 -12 0 10 -13 31 -28 46 -15 15 -32 61 -38 102 -5 40 -24 95
-41 122 -24 36 -26 50 -7 56 18 6 24 149 24 587 1 549 3 586 47 728 26 83 59
240 72 351 14 110 44 259 67 330 23 71 48 156 55 189 8 33 18 48 24 34 11 -33
55 46 75 134 11 50 27 65 92 82 43 12 78 31 78 43 0 13 22 43 49 68 27 24 44
49 39 55 -14 14 179 129 235 140 26 5 51 10 56 11 5 2 30 -17 57 -42z m-1156
-1636 c0 -11 24 -42 54 -68 44 -37 50 -52 31 -75 -17 -20 -18 -35 -3 -50 41
-41 -39 -44 -91 -3 -60 47 -77 217 -21 217 17 0 30 -9 30 -21z m5257 -269
c164 -148 161 -425 -11 -986 -68 -220 -96 -254 -195 -236 -41 8 -69 21 -61 28
7 8 -25 23 -72 34 l-85 21 5 139 c3 76 9 146 15 155 5 8 -4 20 -21 27 -23 9
-25 23 -11 61 11 27 19 157 19 288 0 182 6 239 26 239 32 0 234 198 234 230 0
25 40 70 64 70 9 0 51 -31 93 -70z m-5338 -51 c28 -61 70 -113 103 -130 44
-23 58 -47 66 -114 20 -153 23 -515 6 -515 -10 0 -12 -76 -4 -170 l13 -170
-60 0 c-33 0 -63 -9 -66 -19 -10 -29 -146 -80 -170 -65 -89 58 -247 642 -247
917 0 319 246 502 359 266z"/>
<path d="M6781 7155 c0 -19 -14 -35 -31 -35 -16 0 -30 -9 -30 -19 0 -11 15
-14 32 -7 27 10 29 5 13 -26 -11 -21 -16 -49 -11 -63 5 -14 -12 -33 -37 -44
-26 -10 -36 -19 -23 -20 15 0 20 -16 13 -36 -8 -23 6 -16 42 20 29 31 51 71
48 90 -3 19 1 45 9 58 8 13 6 44 -5 70 -14 35 -19 38 -20 12z"/>
<path d="M3035 6704 c-72 -32 -99 -64 -53 -64 31 0 156 61 170 82 16 27 -34
20 -117 -18z"/>
<path d="M5900 6665 c0 -33 155 -105 227 -105 141 0 87 64 -77 90 -44 7 -96
17 -115 22 -19 6 -35 3 -35 -7z"/>
<path d="M3205 5460 c-132 -20 -302 -101 -383 -184 -122 -125 -56 -169 123
-84 171 82 449 82 680 2 184 -64 295 -69 342 -17 163 180 -297 350 -762 283z"/>
<path d="M5480 5451 c-249 -41 -340 -96 -340 -205 0 -119 107 -136 354 -55
267 87 507 90 682 9 197 -90 258 -63 146 64 -160 182 -463 249 -842 187z"/>
<path d="M3302 4917 c-319 -52 -691 -485 -532 -617 37 -30 29 -38 102 99 245
462 795 582 1012 222 163 -271 188 -370 103 -402 -29 -11 -96 -56 -148 -100
-197 -165 -402 -202 -632 -115 -130 50 -122 45 -247 155 -87 77 -165 102 -190
61 -7 -11 -3 -20 9 -20 11 0 21 -21 21 -48 0 -26 14 -58 30 -72 17 -14 30 -18
30 -9 0 8 16 2 35 -15 19 -17 82 -55 140 -86 58 -31 105 -65 105 -76 0 -12 10
-11 25 1 34 28 322 32 305 5 -7 -11 -23 -15 -34 -7 -13 8 -16 4 -8 -10 16 -26
92 -32 92 -7 0 8 38 15 85 15 105 0 128 8 189 63 27 24 67 46 88 50 22 3 40
15 40 26 1 11 28 37 60 57 32 20 58 45 58 55 0 9 31 30 68 46 105 44 110 167
12 272 -30 32 -51 62 -46 67 4 4 -17 35 -48 67 -31 33 -78 88 -104 123 -62 84
-182 152 -335 192 -135 34 -131 34 -285 8z"/>
<path d="M5530 4908 c-179 -43 -371 -204 -449 -378 -17 -38 -19 -38 -20 -2 -2
62 -75 -45 -94 -139 -30 -148 -2 -229 80 -229 23 0 60 -21 82 -47 52 -59 149
-122 164 -107 7 7 27 -6 44 -27 19 -23 62 -42 98 -45 42 -2 65 -15 66 -34 0
-23 7 -21 29 8 25 33 30 34 41 7 7 -18 26 -37 43 -44 20 -7 27 -2 20 16 -8 20
14 28 88 30 86 3 98 -1 98 -36 0 -27 9 -36 30 -28 17 6 28 26 25 44 -5 34 9
36 70 12 20 -8 35 -4 35 9 0 12 19 22 42 22 23 0 64 17 91 39 27 21 62 34 78
28 18 -7 29 1 29 23 0 22 11 30 30 23 20 -8 30 1 30 28 0 21 9 39 20 39 11 0
20 31 20 70 0 48 12 77 40 94 83 52 -11 307 -166 450 -188 173 -416 233 -664
174z m304 -111 c165 -53 349 -226 435 -408 l56 -117 -47 -31 c-27 -17 -85 -65
-130 -106 -245 -224 -572 -238 -823 -36 -69 56 -132 101 -140 101 -8 1 -36 17
-61 36 l-45 35 44 110 c160 390 385 522 711 416z"/>
<path d="M5452 4723 c-299 -214 -144 -672 228 -672 377 0 527 502 200 669
-102 52 -118 51 -55 -5 124 -111 165 -308 96 -469 -55 -127 -156 -160 -318
-104 -84 29 -81 60 4 36 144 -40 351 130 325 267 -25 133 -76 194 -197 237
-75 26 -100 58 -46 58 16 0 34 9 41 20 31 50 -199 19 -278 -37z m138 -83 c54
-59 14 -140 -69 -140 -82 0 -116 63 -72 131 39 59 92 63 141 9z"/>
<path d="M3240 4718 c-227 -165 -201 -506 47 -628 420 -205 767 338 398 623
-119 91 -322 93 -445 5z m340 -18 c22 -22 45 -40 51 -39 7 1 30 -22 52 -50 54
-69 34 -64 -47 10 -36 34 -91 66 -121 73 -30 6 -55 19 -55 29 0 32 80 17 120
-23z m-192 -70 c42 -64 7 -130 -69 -130 -94 0 -128 75 -66 143 46 51 96 46
135 -13z m359 -235 c-35 -237 -78 -286 -236 -268 -118 14 -211 48 -211 77 0
10 10 12 22 5 147 -91 398 30 398 191 0 33 8 60 18 60 10 0 14 -29 9 -65z"/>
<path d="M6321 3911 c-38 -45 -18 -120 33 -127 54 -8 85 79 46 126 -31 38 -49
38 -79 1z"/>
<path d="M7222 4616 c-91 -89 -184 -228 -203 -303 -9 -35 -22 -82 -29 -105 -9
-30 -4 -41 19 -41 19 0 31 17 31 44 0 24 14 55 30 69 17 14 30 37 30 52 0 37
133 166 195 190 28 10 45 25 38 32 -7 6 2 23 21 36 41 30 21 90 -30 90 -20 0
-66 -29 -102 -64z"/>
<path d="M1760 4651 c0 -62 49 -132 108 -154 60 -22 172 -151 217 -249 55
-123 69 -46 17 101 -73 207 -342 444 -342 302z"/>
<path d="M4875 8566 c-53 -14 -42 -46 15 -46 31 0 50 11 50 30 0 31 -5 32 -65
16z"/>
<path d="M4990 8562 c-51 -20 -14 -34 137 -51 53 -7 113 -20 134 -31 45 -25
59 -25 59 -2 0 9 -19 22 -42 28 -23 6 -36 21 -29 33 18 29 -15 27 -48 -4 -15
-14 -21 -15 -14 -2 21 37 -122 58 -197 29z"/>
<path d="M5566 8491 c-38 -17 -68 -20 -73 -9 -6 10 -8 8 -5 -6 3 -15 50 -31
114 -39 117 -13 178 -33 178 -56 0 -8 36 -26 80 -41 44 -15 80 -34 80 -43 0
-9 18 -17 40 -17 22 0 40 -11 40 -25 0 -14 18 -37 40 -50 22 -14 40 -17 40 -6
0 10 -9 24 -20 31 -11 7 -20 30 -20 51 0 22 -11 39 -26 39 -14 0 -41 18 -60
41 -19 22 -44 35 -56 28 -11 -7 -25 5 -31 28 -7 24 -22 36 -39 29 -15 -5 -28
-1 -28 10 0 54 -160 76 -254 35z"/>
<path d="M3285 8149 c-125 -38 -256 -105 -239 -122 4 -4 44 11 88 33 107 51
232 79 361 80 58 0 105 8 105 18 0 37 -181 32 -315 -9z"/>
<path d="M3883 8038 c-32 -53 -20 -65 80 -76 7 -1 9 -20 3 -42 -6 -22 -3 -41
7 -42 59 -5 95 -19 110 -42 9 -14 17 -21 18 -16 1 6 5 26 9 45 4 20 -6 35 -21
35 -15 0 -37 18 -49 40 -12 22 -15 40 -8 40 7 0 2 14 -12 30 -14 17 -17 31 -7
31 20 2 -54 36 -83 38 -11 0 -32 -18 -47 -41z"/>
<path d="M6400 7964 c-197 -22 -194 -62 5 -67 41 -1 70 -9 64 -18 -5 -9 35
-37 89 -62 54 -26 110 -68 124 -93 17 -29 39 -43 61 -37 19 5 38 1 41 -8 3 -9
29 -3 56 13 l50 28 -55 -12 c-30 -7 -55 -4 -55 6 0 11 -22 31 -50 46 -27 15
-50 44 -50 65 0 21 -9 32 -21 24 -11 -7 -44 11 -73 39 -28 29 -67 52 -87 52
-20 0 -39 7 -42 15 -4 8 -29 13 -57 9z"/>
<path d="M4798 7861 c-73 -66 -80 -78 -41 -71 53 9 223 112 223 135 0 43 -105
6 -182 -64z"/>
<path d="M2798 7882 c-17 -20 -44 -91 -59 -159 -19 -86 -35 -121 -53 -114 -14
5 -26 2 -26 -7 0 -17 -28 -24 -215 -52 -85 -14 -100 -50 -20 -50 32 0 20 -14
-50 -59 -91 -58 -193 -194 -125 -168 16 6 30 19 30 29 0 10 9 18 21 18 11 0
45 23 75 50 58 54 287 150 358 150 55 0 61 10 77 131 8 54 22 119 31 145 40
105 16 152 -44 86z"/>
<path d="M3114 7872 c-30 -23 -31 -29 -5 -39 16 -6 35 -2 42 8 6 11 20 15 30
8 10 -6 13 3 7 20 -15 37 -27 38 -74 3z"/>
<path d="M5910 7521 c-40 -17 -40 -17 0 -32 59 -23 218 -132 236 -163 18 -30
74 -35 74 -7 0 39 -215 224 -256 220 -8 -1 -32 -9 -54 -18z"/>
<path d="M7053 7465 c-6 -10 16 -42 48 -72 32 -31 90 -111 130 -179 l72 -124
-13 100 c-8 55 -31 118 -52 141 -21 23 -32 49 -23 57 8 9 6 14 -5 11 -46 -9
-70 3 -70 34 0 19 -6 28 -13 21 -7 -8 -25 -4 -38 7 -14 12 -30 13 -36 4z"/>
<path d="M3568 7406 c-6 -20 -18 -50 -27 -67 -24 -45 -23 -223 1 -252 12 -14
14 -37 5 -51 -28 -45 -27 -92 2 -103 21 -8 29 6 28 53 0 94 19 337 31 389 12
54 -24 82 -40 31z"/>
<path d="M2967 7085 c2 -19 -10 -34 -26 -35 -17 0 -41 -22 -55 -50 -14 -27
-26 -39 -26 -25 0 14 -8 25 -18 25 -44 0 -5 -70 40 -73 65 -3 159 95 144 151
-13 50 -63 56 -59 7z"/>
<path d="M5929 7015 c-7 -18 -6 -44 2 -56 8 -13 2 -31 -13 -40 -36 -22 -13
-43 29 -27 36 13 43 81 14 127 -16 26 -21 25 -32 -4z"/>
<path d="M1792 6583 c-22 -36 -43 -236 -30 -283 16 -57 20 -186 5 -140 -6 17
-28 68 -49 115 -21 46 -38 98 -38 115 0 16 -8 30 -18 30 -34 0 -18 -151 27
-250 25 -55 52 -121 60 -146 20 -65 61 -43 61 33 0 73 11 79 45 23 14 -22 38
-40 53 -40 15 0 38 -13 52 -30 35 -42 80 -37 80 9 0 38 -95 121 -138 121 -12
0 -22 14 -22 32 0 17 -18 54 -39 82 -33 41 -39 74 -33 198 6 146 4 164 -16
131z"/>
<path d="M7085 6515 c3 -14 -10 -22 -30 -19 -25 4 -34 -7 -33 -40 2 -37 5 -39
12 -9 8 32 14 30 38 -17 15 -30 23 -62 17 -72 -6 -10 2 -18 18 -18 19 0 26 13
19 40 -6 22 -18 40 -27 40 -24 0 -9 67 18 76 13 4 18 16 12 26 -17 27 -50 22
-44 -7z"/>
<path d="M2120 5979 c0 -28 76 -62 89 -40 12 19 -21 47 -64 54 -14 2 -25 -4
-25 -14z"/>
<path d="M7260 5652 c0 -27 11 -52 25 -57 20 -7 20 -15 -1 -40 -14 -17 -41
-79 -60 -137 -28 -88 -48 -115 -114 -152 -44 -25 -65 -45 -47 -46 18 0 37 -18
43 -40 16 -62 43 -48 83 45 20 47 50 100 66 119 16 18 23 42 17 53 -7 11 -4
26 7 32 37 23 59 150 38 212 -25 71 -57 77 -57 11z"/>
<path d="M1800 5326 c0 -37 46 -106 71 -106 12 0 -14 65 -44 109 -27 39 -27
39 -27 -3z"/>
<path d="M1989 3357 l-59 -12 55 -3 c75 -3 70 -42 -5 -42 -43 0 -60 10 -62 35
-1 22 -5 25 -11 9 -22 -53 30 -82 107 -60 65 18 209 9 277 -17 14 -6 45 9 67
31 23 23 50 42 61 42 57 0 25 31 -35 34 -46 2 -63 -2 -46 -13 15 -9 21 -27 13
-39 -17 -27 -144 -29 -161 -2 -7 11 11 20 42 20 30 0 49 5 43 12 -17 17 -216
20 -286 5z"/>
<path d="M2920 3360 c-156 -7 -197 -15 -160 -28 l50 -18 -59 -9 c-33 -5 -63 1
-67 13 -9 26 -122 29 -161 4 -41 -26 21 -42 164 -42 78 0 140 11 167 30 29 20
48 23 56 9 9 -14 24 -13 46 5 18 15 26 16 18 3 -9 -15 13 -25 68 -31 78 -7
114 15 95 58 -4 9 -101 12 -217 6z"/>
<path d="M3160 3357 c0 -9 42 -17 94 -17 51 0 147 -11 213 -25 85 -17 122 -18
127 -3 5 15 43 16 122 4 62 -10 130 -14 149 -9 19 5 40 1 46 -9 36 -58 169 -8
169 63 0 10 -205 17 -460 15 -253 -1 -460 -10 -460 -19z"/>
<path d="M4182 3355 c38 -9 133 -17 213 -18 80 -2 145 -10 145 -18 0 -23 296
-22 310 1 17 27 83 25 162 -4 51 -18 89 -17 178 4 82 20 117 21 127 5 8 -12
81 -26 163 -31 83 -5 123 -5 90 -1 -109 15 -124 34 -40 48 69 11 -197 18
-1208 28 -140 1 -185 -3 -140 -14z"/>
<path d="M5633 3365 c-27 -43 45 -63 213 -61 97 2 163 10 149 19 -14 9 -18 17
-10 17 9 0 33 -11 54 -24 31 -20 55 -19 114 2 57 21 77 22 83 4 5 -15 16 -17
31 -5 13 10 41 23 63 29 22 5 -77 10 -220 12 -143 1 -306 8 -362 15 -61 7
-108 4 -115 -8z"/>
<path d="M7060 3360 l-70 -15 80 -2 c44 -1 94 6 110 17 36 23 -9 23 -120 0z"/>
<path d="M6486 3345 c52 -4 133 -4 180 0 46 5 3 8 -96 8 -99 0 -137 -4 -84 -8z"/>
<path d="M1731 3322 c-13 -22 35 -42 101 -42 29 0 48 12 48 30 0 33 -129 44
-149 12z"/>
<path d="M4593 2164 c-29 -31 -47 -63 -40 -70 8 -8 4 -14 -9 -14 -12 0 -44
-22 -71 -49 -33 -32 -62 -45 -91 -37 -26 6 -42 1 -42 -14 0 -14 -13 -19 -31
-12 -17 6 -26 3 -20 -7 6 -10 -8 -24 -31 -32 -34 -10 -37 -17 -16 -31 27 -17
24 -20 -27 -25 -14 -2 -34 -23 -45 -48 -11 -25 -31 -41 -45 -36 -15 6 -25 -6
-25 -28 0 -21 11 -41 24 -46 14 -4 17 -18 6 -35 -27 -44 -34 -160 -9 -160 12
0 16 -9 9 -19 -6 -11 2 -47 20 -80 29 -57 29 -61 -4 -61 -30 0 -29 -4 7 -30
23 -16 48 -53 56 -81 11 -46 17 -49 45 -26 29 24 32 22 21 -19 -9 -36 -1 -51
36 -68 26 -12 42 -32 35 -44 -7 -12 5 -6 27 13 22 19 47 28 55 20 31 -30 408
-25 420 6 6 16 23 29 38 29 15 0 45 20 66 43 21 24 27 37 13 29 -41 -24 -28
23 17 66 23 21 37 48 30 59 -7 11 -2 23 10 27 15 5 9 37 -20 96 -48 101 -52
133 -17 147 20 8 20 10 0 11 -14 1 -25 28 -25 62 0 37 9 58 25 55 17 -3 23 19
19 75 -8 97 -14 103 -57 68 -30 -25 -33 -24 -21 7 8 23 -1 50 -26 75 -22 22
-40 54 -40 70 0 17 -12 30 -28 30 -15 0 -32 19 -38 41 -6 23 -30 47 -53 53
-22 6 -41 19 -41 28 0 36 -54 16 -107 -38z m173 -71 c24 -61 -158 -248 -200
-206 -26 26 24 138 81 183 71 56 104 62 119 23z m-203 -244 c44 -8 78 -4 86 9
24 39 187 26 232 -19 l40 -40 -50 -66 c-70 -92 -67 -175 9 -246 74 -70 74 -70
-1 -178 -83 -122 -115 -135 -227 -97 -85 29 -97 29 -142 0 -231 -152 -439 442
-217 623 58 48 70 49 270 14z"/>
<path d="M1571 1199 c-22 -65 -11 -604 22 -1044 11 -153 12 -155 66 -155 l55
0 -7 225 c-11 405 -32 735 -46 735 -7 0 -14 46 -15 102 -1 105 -53 199 -75
137z"/>
<path d="M7493 965 c-33 -64 -54 -256 -84 -750 l-13 -215 58 0 c46 0 58 9 59
45 1 25 9 254 18 510 15 472 12 508 -38 410z"/>
</g>
</svg>
